<?xml version="1.0" ?>
<svg style="enable-background:new 0 0 48 48;" version="1.1" viewBox="0 0 48 48" xml:space="preserve" xmlns="http://www.w3.org/2000/svg" xmlns:xlink="http://www.w3.org/1999/xlink">
<g id="Padding__x26__Artboard"/><g id="Icons">
<g>
<circle cx="24" cy="24" r="15.34377" style="fill:#FFFFFF;"/>
<path d="M37.09991,25.12c0,7.67999-6.07001,13.92999-13.67999,14.20996    c-8.01001-0.29999-14.45001-6.73999-14.75-14.75c0.27997-7.60999,6.52997-13.67999,14.20996-13.67999    C30.73993,10.89996,37.09991,17.26001,37.09991,25.12z" style="fill:#659BDB;"/>
<circle cx="24" cy="24" r="12.93885" style="fill:#B9D4F8;"/>
<path d="    M39.3399,24c0,8.46997-6.87,15.33997-15.34003,15.33997c-0.19,0-0.38995,0-0.57996-0.01001    c-8.01001-0.29999-14.45001-6.73999-14.75-14.75C8.65991,24.39001,8.65991,24.19,8.65991,24    c0-8.47003,6.87-15.34003,15.33997-15.34003C32.46991,8.65997,39.3399,15.52997,39.3399,24z" style="fill:none;stroke:#1B4A9A;stroke-width:0.7;stroke-linecap:round;stroke-linejoin:round;stroke-miterlimit:10;"/>
<ellipse cx="24" cy="21.06503" rx="4.28224" ry="4.39593" style="fill:#FFFFFF;"/>
<ellipse cx="23.55572" cy="21.5211" rx="3.83796" ry="3.93986" style="fill:#B9D4F8;"/>
<path d="M31.66003,31.3309c0-2.35405-2.19146-4.2801-4.48463-4.2801h-6.3508    c-2.29317,0-4.48463,1.92604-4.48463,4.2801v0.4665h15.32006V31.3309z" style="fill:#FFFFFF;"/>
<path d="M29.73159,31.34606c0-2.27755-1.91561-4.141-3.92012-4.141h-5.55138    c-2.00451,0-3.92012,1.86345-3.92012,4.141v0.45134h13.39162V31.34606z" style="fill:#B9D4F8;"/>
<ellipse cx="24" cy="21.06503" rx="3.39368" ry="3.48378" style="fill:#659BDB;"/>
<path d="M27.39368,31.36756c0-2.16906-1.58118-3.94375-3.23574-3.94375h-4.58222    c-1.65457,0-3.23575,1.77468-3.23575,3.94375v0.42984h11.05371V31.36756z" style="fill:#659BDB;"/>
<path d="    M21.45114,11.57075c0.53679-0.09549,1.07644-0.1576,1.61342-0.18429" style="fill:none;stroke:#1B4A9A;stroke-width:0.7;stroke-linecap:round;stroke-linejoin:round;stroke-miterlimit:10;"/>
<path d="    M15.02626,14.75953c1.44125-1.2413,3.22635-2.35482,5.10565-2.8855" style="fill:none;stroke:#1B4A9A;stroke-width:0.7;stroke-linecap:round;stroke-linejoin:round;stroke-miterlimit:10;"/>
<circle cx="24" cy="21.01823" r="4.46602" style="fill:none;stroke:#1B4A9A;stroke-width:0.7;stroke-linecap:round;stroke-linejoin:round;stroke-miterlimit:10;"/>
<path d="    M16.33997,31.44779c0-2.39159,1.95675-4.34834,4.34834-4.34834h6.62337c2.39159,0,4.34834,1.95675,4.34834,4.34834    L16.33997,31.44779z" style="fill:none;stroke:#1B4A9A;stroke-width:0.7;stroke-linecap:round;stroke-linejoin:round;stroke-miterlimit:10;"/>
</g></g></svg>